<mxfile modified="2022-02-27T14:48:16.393Z" host="app.diagrams.net" agent="5.0 (Macintosh; Intel Mac OS X 10_15_7) AppleWebKit/537.36 (KHTML, like Gecko) Chrome/98.0.4758.109 Safari/537.36" etag="PCEE9Kvn_rveqyFwXLmu" version="16.6.4" type="github">
  <diagram id="Ht1M8jgEwFfnCIfOTk4-" name="Page-1">
    <mxGraphModel dx="2034" dy="2323" grid="1" gridSize="10" guides="1" tooltips="1" connect="1" arrows="1" fold="1" page="1" pageScale="1" pageWidth="1169" pageHeight="827" math="0" shadow="0">
      <root>
        <mxCell id="0" />
        <mxCell id="1" parent="0" />
        <mxCell id="UEzPUAAOIrF-is8g5C7q-176" value="&lt;b&gt;Monitoring 3rd Party&lt;/b&gt;" style="points=[[0,0],[0.25,0],[0.5,0],[0.75,0],[1,0],[1,0.25],[1,0.5],[1,0.75],[1,1],[0.75,1],[0.5,1],[0.25,1],[0,1],[0,0.75],[0,0.5],[0,0.25]];outlineConnect=0;gradientColor=none;html=1;whiteSpace=wrap;fontSize=12;fontStyle=0;shape=mxgraph.aws4.group;grIcon=mxgraph.aws4.group_aws_cloud_alt;strokeColor=#232F3E;fillColor=none;verticalAlign=top;align=left;spacingLeft=30;fontColor=#232F3E;dashed=0;labelBackgroundColor=#ffffff;container=1;pointerEvents=0;collapsible=0;recursiveResize=0;" parent="1" vertex="1">
          <mxGeometry x="200" y="390" width="220" height="310" as="geometry" />
        </mxCell>
        <mxCell id="UEzPUAAOIrF-is8g5C7q-187" value="Account&lt;br&gt;Baseline&lt;br&gt;" style="outlineConnect=0;fontColor=#232F3E;gradientColor=#F34482;gradientDirection=north;fillColor=#BC1356;strokeColor=#ffffff;dashed=0;verticalLabelPosition=bottom;verticalAlign=top;align=center;html=1;fontSize=12;fontStyle=0;aspect=fixed;shape=mxgraph.aws4.resourceIcon;resIcon=mxgraph.aws4.cloudformation;labelBackgroundColor=#ffffff;" parent="UEzPUAAOIrF-is8g5C7q-176" vertex="1">
          <mxGeometry x="20" y="69" width="78" height="78" as="geometry" />
        </mxCell>
        <mxCell id="UEzPUAAOIrF-is8g5C7q-188" value="Amazon VPC" style="outlineConnect=0;fontColor=#232F3E;gradientColor=#945DF2;gradientDirection=north;fillColor=#5A30B5;strokeColor=#ffffff;dashed=0;verticalLabelPosition=bottom;verticalAlign=top;align=center;html=1;fontSize=12;fontStyle=0;aspect=fixed;shape=mxgraph.aws4.resourceIcon;resIcon=mxgraph.aws4.vpc;labelBackgroundColor=#ffffff;" parent="UEzPUAAOIrF-is8g5C7q-176" vertex="1">
          <mxGeometry x="121" y="69" width="78" height="78" as="geometry" />
        </mxCell>
        <mxCell id="UEzPUAAOIrF-is8g5C7q-185" value="&lt;b&gt;Monitoring AWS&lt;/b&gt;" style="points=[[0,0],[0.25,0],[0.5,0],[0.75,0],[1,0],[1,0.25],[1,0.5],[1,0.75],[1,1],[0.75,1],[0.5,1],[0.25,1],[0,1],[0,0.75],[0,0.5],[0,0.25]];outlineConnect=0;gradientColor=none;html=1;whiteSpace=wrap;fontSize=12;fontStyle=0;shape=mxgraph.aws4.group;grIcon=mxgraph.aws4.group_aws_cloud_alt;strokeColor=#232F3E;fillColor=none;verticalAlign=top;align=left;spacingLeft=30;fontColor=#232F3E;dashed=0;labelBackgroundColor=#ffffff;container=1;pointerEvents=0;collapsible=0;recursiveResize=0;" parent="1" vertex="1">
          <mxGeometry x="550" y="390" width="230" height="310" as="geometry" />
        </mxCell>
        <mxCell id="UEzPUAAOIrF-is8g5C7q-190" value="Aggregate&lt;br&gt;CloudTrail&lt;br&gt;and Config Logs&lt;br&gt;" style="outlineConnect=0;fontColor=#232F3E;gradientColor=none;fillColor=#5A30B5;strokeColor=none;dashed=0;verticalLabelPosition=bottom;verticalAlign=top;align=center;html=1;fontSize=12;fontStyle=0;aspect=fixed;pointerEvents=1;shape=mxgraph.aws4.flow_logs;labelBackgroundColor=#ffffff;" parent="UEzPUAAOIrF-is8g5C7q-185" vertex="1">
          <mxGeometry x="20" y="90" width="78" height="78" as="geometry" />
        </mxCell>
        <mxCell id="UEzPUAAOIrF-is8g5C7q-175" value="&lt;b&gt;AWS Cloud&lt;/b&gt;" style="points=[[0,0],[0.25,0],[0.5,0],[0.75,0],[1,0],[1,0.25],[1,0.5],[1,0.75],[1,1],[0.75,1],[0.5,1],[0.25,1],[0,1],[0,0.75],[0,0.5],[0,0.25]];outlineConnect=0;gradientColor=none;html=1;whiteSpace=wrap;fontSize=12;fontStyle=0;shape=mxgraph.aws4.group;grIcon=mxgraph.aws4.group_aws_cloud_alt;strokeColor=#232F3E;fillColor=none;verticalAlign=top;align=left;spacingLeft=30;fontColor=#232F3E;dashed=0;labelBackgroundColor=#ffffff;container=1;pointerEvents=0;collapsible=0;recursiveResize=0;" parent="1" vertex="1">
          <mxGeometry x="60" y="-1010" width="1110" height="1200" as="geometry" />
        </mxCell>
        <mxCell id="HyQorGMNkBGvlITAvwwV-38" value="" style="strokeColor=#dddddd;shadow=1;strokeWidth=1;rounded=1;absoluteArcSize=1;arcSize=2;" vertex="1" parent="UEzPUAAOIrF-is8g5C7q-175">
          <mxGeometry x="280" y="380" width="80" height="30" as="geometry" />
        </mxCell>
        <mxCell id="HyQorGMNkBGvlITAvwwV-39" value="NAT" style="sketch=0;dashed=0;connectable=0;html=1;fillColor=#757575;strokeColor=none;shape=mxgraph.gcp2.nat;part=1;labelPosition=right;verticalLabelPosition=middle;align=left;verticalAlign=middle;spacingLeft=5;fontSize=12;" vertex="1" parent="HyQorGMNkBGvlITAvwwV-38">
          <mxGeometry y="0.5" width="32" height="32" relative="1" as="geometry">
            <mxPoint x="5" y="-16" as="offset" />
          </mxGeometry>
        </mxCell>
        <mxCell id="HyQorGMNkBGvlITAvwwV-41" value="" style="strokeColor=#dddddd;shadow=1;strokeWidth=1;rounded=1;absoluteArcSize=1;arcSize=2;" vertex="1" parent="UEzPUAAOIrF-is8g5C7q-175">
          <mxGeometry x="600" y="380" width="80" height="30" as="geometry" />
        </mxCell>
        <mxCell id="HyQorGMNkBGvlITAvwwV-42" value="NAT" style="sketch=0;dashed=0;connectable=0;html=1;fillColor=#757575;strokeColor=none;shape=mxgraph.gcp2.nat;part=1;labelPosition=right;verticalLabelPosition=middle;align=left;verticalAlign=middle;spacingLeft=5;fontSize=12;" vertex="1" parent="HyQorGMNkBGvlITAvwwV-41">
          <mxGeometry y="0.5" width="32" height="32" relative="1" as="geometry">
            <mxPoint x="5" y="-16" as="offset" />
          </mxGeometry>
        </mxCell>
        <mxCell id="HyQorGMNkBGvlITAvwwV-43" value="" style="strokeColor=#dddddd;shadow=1;strokeWidth=1;rounded=1;absoluteArcSize=1;arcSize=2;" vertex="1" parent="UEzPUAAOIrF-is8g5C7q-175">
          <mxGeometry x="920" y="380" width="80" height="30" as="geometry" />
        </mxCell>
        <mxCell id="HyQorGMNkBGvlITAvwwV-44" value="NAT" style="sketch=0;dashed=0;connectable=0;html=1;fillColor=#757575;strokeColor=none;shape=mxgraph.gcp2.nat;part=1;labelPosition=right;verticalLabelPosition=middle;align=left;verticalAlign=middle;spacingLeft=5;fontSize=12;" vertex="1" parent="HyQorGMNkBGvlITAvwwV-43">
          <mxGeometry y="0.5" width="32" height="32" relative="1" as="geometry">
            <mxPoint x="5" y="-16" as="offset" />
          </mxGeometry>
        </mxCell>
        <mxCell id="HyQorGMNkBGvlITAvwwV-89" style="edgeStyle=orthogonalEdgeStyle;rounded=0;orthogonalLoop=1;jettySize=auto;html=1;" edge="1" parent="UEzPUAAOIrF-is8g5C7q-175" source="HyQorGMNkBGvlITAvwwV-45" target="HyQorGMNkBGvlITAvwwV-56">
          <mxGeometry relative="1" as="geometry" />
        </mxCell>
        <mxCell id="HyQorGMNkBGvlITAvwwV-90" value="&lt;b&gt;HTTPS&lt;br&gt;443&lt;/b&gt;" style="edgeLabel;html=1;align=center;verticalAlign=middle;resizable=0;points=[];" vertex="1" connectable="0" parent="HyQorGMNkBGvlITAvwwV-89">
          <mxGeometry x="-0.1492" relative="1" as="geometry">
            <mxPoint x="1" as="offset" />
          </mxGeometry>
        </mxCell>
        <mxCell id="HyQorGMNkBGvlITAvwwV-105" style="edgeStyle=orthogonalEdgeStyle;rounded=0;orthogonalLoop=1;jettySize=auto;html=1;" edge="1" parent="UEzPUAAOIrF-is8g5C7q-175" source="HyQorGMNkBGvlITAvwwV-45" target="HyQorGMNkBGvlITAvwwV-52">
          <mxGeometry relative="1" as="geometry" />
        </mxCell>
        <mxCell id="HyQorGMNkBGvlITAvwwV-106" value="&lt;b&gt;HTTPS&lt;br&gt;443&lt;/b&gt;" style="edgeLabel;html=1;align=center;verticalAlign=middle;resizable=0;points=[];" vertex="1" connectable="0" parent="HyQorGMNkBGvlITAvwwV-105">
          <mxGeometry x="-0.153" y="1" relative="1" as="geometry">
            <mxPoint as="offset" />
          </mxGeometry>
        </mxCell>
        <mxCell id="HyQorGMNkBGvlITAvwwV-45" value="" style="outlineConnect=0;dashed=0;verticalLabelPosition=bottom;verticalAlign=top;align=center;html=1;shape=mxgraph.aws3.application_load_balancer;fillColor=#F58534;gradientColor=none;" vertex="1" parent="UEzPUAAOIrF-is8g5C7q-175">
          <mxGeometry x="480.5" y="210" width="69" height="72" as="geometry" />
        </mxCell>
        <mxCell id="HyQorGMNkBGvlITAvwwV-49" value="&lt;b style=&quot;color: rgb(135 , 145 , 150) ; font-size: 12px ; font-style: normal ; letter-spacing: normal ; text-align: left ; text-indent: 0px ; text-transform: none ; word-spacing: 0px ; font-family: &amp;#34;helvetica&amp;#34; ; background-color: rgb(248 , 249 , 250)&quot;&gt;US East 2&lt;/b&gt;" style="text;whiteSpace=wrap;html=1;" vertex="1" parent="UEzPUAAOIrF-is8g5C7q-175">
          <mxGeometry x="30" y="60" width="110" height="30" as="geometry" />
        </mxCell>
        <mxCell id="HyQorGMNkBGvlITAvwwV-94" style="edgeStyle=orthogonalEdgeStyle;rounded=0;orthogonalLoop=1;jettySize=auto;html=1;" edge="1" parent="UEzPUAAOIrF-is8g5C7q-175" source="HyQorGMNkBGvlITAvwwV-50" target="HyQorGMNkBGvlITAvwwV-58">
          <mxGeometry relative="1" as="geometry" />
        </mxCell>
        <mxCell id="HyQorGMNkBGvlITAvwwV-107" value="&lt;b&gt;HTTPS&lt;br&gt;80&lt;/b&gt;" style="edgeLabel;html=1;align=center;verticalAlign=middle;resizable=0;points=[];" vertex="1" connectable="0" parent="HyQorGMNkBGvlITAvwwV-94">
          <mxGeometry x="-0.0339" y="-1" relative="1" as="geometry">
            <mxPoint as="offset" />
          </mxGeometry>
        </mxCell>
        <mxCell id="HyQorGMNkBGvlITAvwwV-108" style="edgeStyle=orthogonalEdgeStyle;rounded=0;orthogonalLoop=1;jettySize=auto;html=1;" edge="1" parent="UEzPUAAOIrF-is8g5C7q-175" source="HyQorGMNkBGvlITAvwwV-50" target="HyQorGMNkBGvlITAvwwV-84">
          <mxGeometry relative="1" as="geometry" />
        </mxCell>
        <mxCell id="HyQorGMNkBGvlITAvwwV-110" value="&lt;b&gt;HTTP&lt;br&gt;80&lt;/b&gt;" style="edgeLabel;html=1;align=center;verticalAlign=middle;resizable=0;points=[];" vertex="1" connectable="0" parent="HyQorGMNkBGvlITAvwwV-108">
          <mxGeometry x="0.0077" y="-3" relative="1" as="geometry">
            <mxPoint as="offset" />
          </mxGeometry>
        </mxCell>
        <mxCell id="HyQorGMNkBGvlITAvwwV-50" value="" style="outlineConnect=0;dashed=0;verticalLabelPosition=bottom;verticalAlign=top;align=center;html=1;shape=mxgraph.aws3.classic_load_balancer;fillColor=#F58536;gradientColor=none;" vertex="1" parent="UEzPUAAOIrF-is8g5C7q-175">
          <mxGeometry x="480.5" y="550" width="60" height="55" as="geometry" />
        </mxCell>
        <mxCell id="HyQorGMNkBGvlITAvwwV-51" value="" style="outlineConnect=0;dashed=0;verticalLabelPosition=bottom;verticalAlign=top;align=center;html=1;shape=mxgraph.aws3.ec2;fillColor=#F58534;gradientColor=none;" vertex="1" parent="UEzPUAAOIrF-is8g5C7q-175">
          <mxGeometry x="160" y="470" width="40" height="60" as="geometry" />
        </mxCell>
        <mxCell id="HyQorGMNkBGvlITAvwwV-52" value="" style="outlineConnect=0;dashed=0;verticalLabelPosition=bottom;verticalAlign=top;align=center;html=1;shape=mxgraph.aws3.ec2;fillColor=#F58534;gradientColor=none;" vertex="1" parent="UEzPUAAOIrF-is8g5C7q-175">
          <mxGeometry x="200" y="470" width="40" height="60" as="geometry" />
        </mxCell>
        <mxCell id="HyQorGMNkBGvlITAvwwV-55" value="" style="outlineConnect=0;dashed=0;verticalLabelPosition=bottom;verticalAlign=top;align=center;html=1;shape=mxgraph.aws3.ec2;fillColor=#F58534;gradientColor=none;" vertex="1" parent="UEzPUAAOIrF-is8g5C7q-175">
          <mxGeometry x="790" y="460" width="40" height="60" as="geometry" />
        </mxCell>
        <mxCell id="HyQorGMNkBGvlITAvwwV-56" value="" style="outlineConnect=0;dashed=0;verticalLabelPosition=bottom;verticalAlign=top;align=center;html=1;shape=mxgraph.aws3.ec2;fillColor=#F58534;gradientColor=none;" vertex="1" parent="UEzPUAAOIrF-is8g5C7q-175">
          <mxGeometry x="830" y="460" width="40" height="60" as="geometry" />
        </mxCell>
        <mxCell id="HyQorGMNkBGvlITAvwwV-57" value="" style="outlineConnect=0;dashed=0;verticalLabelPosition=bottom;verticalAlign=top;align=center;html=1;shape=mxgraph.aws3.ec2;fillColor=#F58534;gradientColor=none;" vertex="1" parent="UEzPUAAOIrF-is8g5C7q-175">
          <mxGeometry x="150" y="660" width="40" height="60" as="geometry" />
        </mxCell>
        <mxCell id="HyQorGMNkBGvlITAvwwV-58" value="" style="outlineConnect=0;dashed=0;verticalLabelPosition=bottom;verticalAlign=top;align=center;html=1;shape=mxgraph.aws3.ec2;fillColor=#F58534;gradientColor=none;" vertex="1" parent="UEzPUAAOIrF-is8g5C7q-175">
          <mxGeometry x="190" y="660" width="40" height="60" as="geometry" />
        </mxCell>
        <mxCell id="HyQorGMNkBGvlITAvwwV-59" value="" style="outlineConnect=0;dashed=0;verticalLabelPosition=bottom;verticalAlign=top;align=center;html=1;shape=mxgraph.aws3.ec2;fillColor=#F58534;gradientColor=none;" vertex="1" parent="UEzPUAAOIrF-is8g5C7q-175">
          <mxGeometry x="810" y="640" width="40" height="60" as="geometry" />
        </mxCell>
        <mxCell id="HyQorGMNkBGvlITAvwwV-84" value="" style="outlineConnect=0;dashed=0;verticalLabelPosition=bottom;verticalAlign=top;align=center;html=1;shape=mxgraph.aws3.ec2;fillColor=#F58534;gradientColor=none;" vertex="1" parent="UEzPUAAOIrF-is8g5C7q-175">
          <mxGeometry x="850" y="640" width="40" height="60" as="geometry" />
        </mxCell>
        <mxCell id="HyQorGMNkBGvlITAvwwV-95" value="" style="line;strokeWidth=2;direction=south;html=1;strokeColor=#B3B3B3;" vertex="1" parent="UEzPUAAOIrF-is8g5C7q-175">
          <mxGeometry x="370" y="190" width="10" height="870" as="geometry" />
        </mxCell>
        <mxCell id="HyQorGMNkBGvlITAvwwV-96" value="" style="line;strokeWidth=2;direction=south;html=1;strokeColor=#B3B3B3;" vertex="1" parent="UEzPUAAOIrF-is8g5C7q-175">
          <mxGeometry x="690" y="190" width="10" height="883" as="geometry" />
        </mxCell>
        <mxCell id="HyQorGMNkBGvlITAvwwV-98" value="" style="line;strokeWidth=2;html=1;strokeColor=#B3B3B3;" vertex="1" parent="UEzPUAAOIrF-is8g5C7q-175">
          <mxGeometry x="40" y="430" width="980" height="10" as="geometry" />
        </mxCell>
        <mxCell id="HyQorGMNkBGvlITAvwwV-99" value="" style="line;strokeWidth=2;direction=south;html=1;strokeColor=#B3B3B3;" vertex="1" parent="UEzPUAAOIrF-is8g5C7q-175">
          <mxGeometry x="40" y="183" width="10" height="877" as="geometry" />
        </mxCell>
        <mxCell id="HyQorGMNkBGvlITAvwwV-100" value="" style="line;strokeWidth=2;html=1;strokeColor=#B3B3B3;" vertex="1" parent="UEzPUAAOIrF-is8g5C7q-175">
          <mxGeometry x="40" y="183" width="985" height="10" as="geometry" />
        </mxCell>
        <mxCell id="HyQorGMNkBGvlITAvwwV-101" value="" style="line;strokeWidth=2;direction=south;html=1;strokeColor=#B3B3B3;" vertex="1" parent="UEzPUAAOIrF-is8g5C7q-175">
          <mxGeometry x="1020" y="190" width="10" height="870" as="geometry" />
        </mxCell>
        <mxCell id="HyQorGMNkBGvlITAvwwV-103" value="" style="line;strokeWidth=2;html=1;strokeColor=#B3B3B3;" vertex="1" parent="UEzPUAAOIrF-is8g5C7q-175">
          <mxGeometry x="40" y="770" width="980" height="10" as="geometry" />
        </mxCell>
        <mxCell id="HyQorGMNkBGvlITAvwwV-104" value="" style="line;strokeWidth=2;html=1;strokeColor=#B3B3B3;" vertex="1" parent="UEzPUAAOIrF-is8g5C7q-175">
          <mxGeometry x="42.5" y="1060" width="980" height="10" as="geometry" />
        </mxCell>
        <mxCell id="HyQorGMNkBGvlITAvwwV-111" value="&lt;b&gt;App Subnet AZ1&lt;/b&gt;" style="text;html=1;strokeColor=none;fillColor=none;align=center;verticalAlign=middle;whiteSpace=wrap;rounded=0;" vertex="1" parent="UEzPUAAOIrF-is8g5C7q-175">
          <mxGeometry x="70" y="730" width="90" height="30" as="geometry" />
        </mxCell>
        <mxCell id="HyQorGMNkBGvlITAvwwV-112" value="&lt;b style=&quot;color: rgb(0 , 0 , 0) ; font-family: &amp;#34;helvetica&amp;#34; ; font-size: 12px ; font-style: normal ; letter-spacing: normal ; text-align: center ; text-indent: 0px ; text-transform: none ; word-spacing: 0px ; background-color: rgb(248 , 249 , 250)&quot;&gt;App Subnet AZ2&lt;/b&gt;" style="text;whiteSpace=wrap;html=1;" vertex="1" parent="UEzPUAAOIrF-is8g5C7q-175">
          <mxGeometry x="400" y="730" width="120" height="30" as="geometry" />
        </mxCell>
        <mxCell id="HyQorGMNkBGvlITAvwwV-113" value="&lt;b style=&quot;color: rgb(0 , 0 , 0) ; font-family: &amp;#34;helvetica&amp;#34; ; font-size: 12px ; font-style: normal ; letter-spacing: normal ; text-align: center ; text-indent: 0px ; text-transform: none ; word-spacing: 0px ; background-color: rgb(248 , 249 , 250)&quot;&gt;App Subnet AZ3&lt;/b&gt;" style="text;whiteSpace=wrap;html=1;" vertex="1" parent="UEzPUAAOIrF-is8g5C7q-175">
          <mxGeometry x="710" y="730" width="120" height="30" as="geometry" />
        </mxCell>
        <mxCell id="HyQorGMNkBGvlITAvwwV-114" value="&lt;b style=&quot;color: rgb(0 , 0 , 0) ; font-family: &amp;#34;helvetica&amp;#34; ; font-size: 12px ; font-style: normal ; letter-spacing: normal ; text-align: center ; text-indent: 0px ; text-transform: none ; word-spacing: 0px ; background-color: rgb(248 , 249 , 250)&quot;&gt;Database Subnet AZ3&lt;/b&gt;" style="text;whiteSpace=wrap;html=1;" vertex="1" parent="UEzPUAAOIrF-is8g5C7q-175">
          <mxGeometry x="710" y="1020" width="120" height="30" as="geometry" />
        </mxCell>
        <mxCell id="HyQorGMNkBGvlITAvwwV-115" value="&lt;b style=&quot;color: rgb(0 , 0 , 0) ; font-size: 12px ; font-style: normal ; letter-spacing: normal ; text-indent: 0px ; text-transform: none ; word-spacing: 0px ; font-family: &amp;#34;helvetica&amp;#34; ; text-align: center ; background-color: rgb(248 , 249 , 250)&quot;&gt;Database Subnet AZ2&lt;/b&gt;" style="text;whiteSpace=wrap;html=1;" vertex="1" parent="UEzPUAAOIrF-is8g5C7q-175">
          <mxGeometry x="385" y="1020" width="150" height="30" as="geometry" />
        </mxCell>
        <mxCell id="HyQorGMNkBGvlITAvwwV-116" value="&lt;b style=&quot;color: rgb(0 , 0 , 0) ; font-size: 12px ; font-style: normal ; letter-spacing: normal ; text-indent: 0px ; text-transform: none ; word-spacing: 0px ; font-family: &amp;#34;helvetica&amp;#34; ; text-align: center ; background-color: rgb(248 , 249 , 250)&quot;&gt;Database Subnet AZ1&lt;/b&gt;" style="text;whiteSpace=wrap;html=1;" vertex="1" parent="UEzPUAAOIrF-is8g5C7q-175">
          <mxGeometry x="70" y="1030" width="150" height="30" as="geometry" />
        </mxCell>
        <mxCell id="UEzPUAAOIrF-is8g5C7q-195" style="edgeStyle=orthogonalEdgeStyle;rounded=0;orthogonalLoop=1;jettySize=auto;html=1;startArrow=none;startFill=0;endArrow=open;endFill=0;strokeColor=#808080;strokeWidth=2;" parent="1" edge="1">
          <mxGeometry relative="1" as="geometry">
            <mxPoint x="-104.99663912658605" y="-720" as="sourcePoint" />
            <mxPoint x="0.009999999999990905" y="-720" as="targetPoint" />
          </mxGeometry>
        </mxCell>
        <mxCell id="UEzPUAAOIrF-is8g5C7q-196" style="edgeStyle=orthogonalEdgeStyle;rounded=0;orthogonalLoop=1;jettySize=auto;html=1;startArrow=none;startFill=0;endArrow=open;endFill=0;strokeColor=#808080;strokeWidth=2;" parent="1" edge="1">
          <mxGeometry relative="1" as="geometry">
            <mxPoint x="-280" y="-770" as="sourcePoint" />
            <mxPoint x="-87" y="-770" as="targetPoint" />
          </mxGeometry>
        </mxCell>
        <mxCell id="UEzPUAAOIrF-is8g5C7q-199" style="edgeStyle=orthogonalEdgeStyle;rounded=0;orthogonalLoop=1;jettySize=auto;html=1;startArrow=none;startFill=0;endArrow=open;endFill=0;strokeColor=#808080;strokeWidth=2;" parent="1" edge="1">
          <mxGeometry relative="1" as="geometry">
            <mxPoint x="-60" y="-670" as="sourcePoint" />
            <mxPoint x="-60" y="-568" as="targetPoint" />
          </mxGeometry>
        </mxCell>
        <mxCell id="UEzPUAAOIrF-is8g5C7q-200" style="edgeStyle=orthogonalEdgeStyle;rounded=0;orthogonalLoop=1;jettySize=auto;html=1;startArrow=none;startFill=0;endArrow=open;endFill=0;strokeColor=#808080;strokeWidth=2;" parent="1" edge="1">
          <mxGeometry relative="1" as="geometry">
            <Array as="points">
              <mxPoint x="-151" y="-680" />
            </Array>
            <mxPoint x="-220" y="-680" as="sourcePoint" />
            <mxPoint x="-151" y="-559.9839600720788" as="targetPoint" />
          </mxGeometry>
        </mxCell>
        <mxCell id="UEzPUAAOIrF-is8g5C7q-197" style="edgeStyle=orthogonalEdgeStyle;rounded=0;orthogonalLoop=1;jettySize=auto;html=1;startArrow=none;startFill=0;endArrow=open;endFill=0;strokeColor=#808080;strokeWidth=2;" parent="1" edge="1">
          <mxGeometry relative="1" as="geometry">
            <mxPoint x="-330" y="-680" as="sourcePoint" />
            <mxPoint x="-252" y="-680" as="targetPoint" />
          </mxGeometry>
        </mxCell>
        <mxCell id="UEzPUAAOIrF-is8g5C7q-201" style="edgeStyle=orthogonalEdgeStyle;rounded=0;orthogonalLoop=1;jettySize=auto;html=1;startArrow=none;startFill=0;endArrow=open;endFill=0;strokeColor=#808080;strokeWidth=2;" parent="1" edge="1">
          <mxGeometry relative="1" as="geometry">
            <mxPoint x="-230" y="-600" as="sourcePoint" />
            <mxPoint x="-230" y="-488" as="targetPoint" />
          </mxGeometry>
        </mxCell>
      </root>
    </mxGraphModel>
  </diagram>
</mxfile>
